PathFileType	4	(X/Y/Z)	7_coords_data.trc
DataRate	CameraRate	NumFrames	NumMarkers	Units	OrigDataRate	OrigDataStartFrame	OrigNumFrames
30.0	30.0	5	21	m	30.0	22	86
Frame#	Time	THUMB_TIP	THUMB_IP	THUMB_MCP	THUMB_CMC	INDEX_TIP	INDEX_DIP	INDEX_PIP	INDEX_MCP	MIDDLE_TIP	MIDDLE_DIP	MIDDLE_PIP	MIDDLE_MCP	RING_TIP	RING_DIP	RING_PIP	RING_MCP	PINKY_TIP	PINKY_DIP	PINKY_PIP	PINKY_MCP	WRIST
X1	Y1	Z1	X2	Y2	Z2	X3	Y3	Z3	X4	Y4	Z4	X5	Y5	Z5	X6	Y6	Z6	X7	Y7	Z7	X8	Y8	Z8	X9	Y9	Z9	X10	Y10	Z10	X11	Y11	Z11	X12	Y12	Z12	X13	Y13	Z13	X14	Y14	Z14	X15	Y15	Z15	X16	Y16	Z16	X17	Y17	Z17	X18	Y18	Z18	X19	Y19	Z19	X20	Y20	Z20	X21	Y21	Z21
21	0.7	0.02357040023803711	0.032980201721191406	0.9488770141601562	0.0309414005279541	0.03732180023193359	0.9711599731445313	0.0275093994140625	0.038984100341796876	0.998448974609375	0.0045889301300048825	0.04921080017089844	1.0123800048828124	0.03693299865722656	-0.07014890289306641	0.9443359985351563	0.03553749847412109	-0.05191339874267578	0.9575349731445313	0.031956600189208983	-0.03531539916992187	0.969989990234375	0.0219015998840332	-0.005823569774627686	0.9904719848632813	0.03002239990234375	0.024172300338745116	0.9690020141601563	0.02734149932861328	0.013323499679565429	0.95293701171875	0.01576509952545166	-0.008670330047607422	0.9499600219726563	-0.00401757001876831	-0.009811579704284668	0.9868779907226563	0.014461400032043457	0.03319020080566406	0.9596179809570312	0.007549349784851074	0.019352399826049804	0.9478140258789063	-0.007497389793395996	-0.001087769985198974	0.9465419921875	-0.021764400482177735	0.000373944997787475	0.9789920043945313	-0.056780399322509764	-0.028118799209594727	0.9356480102539062	-0.048883800506591794	-0.013795299530029297	0.9466630249023438	-0.04162030029296875	-0.002331249952316284	0.9563870239257812	-0.03001219940185547	0.016952199935913084	0.972385009765625	-0.0234237003326416	0.04502170181274414	1.03377001953125
22	0.7333333333333333	0.023352399826049804	0.03212519836425781	0.9484329833984375	0.030812299728393555	0.03652040100097656	0.9708699951171875	0.027659500122070312	0.03821139907836914	0.9979450073242188	0.004449450016021728	0.04877740097045898	1.0122899780273438	0.03695700073242188	-0.07095619964599609	0.9443820190429687	0.03550360107421875	-0.05273979949951172	0.9575989990234375	0.031888700485229494	-0.036095901489257814	0.9700560302734375	0.02174519920349121	-0.006578479766845703	0.9903800048828125	0.02982749938964844	0.023270000457763673	0.9690070190429687	0.027234500885009765	0.012470800399780274	0.9527830200195313	0.015727000236511232	-0.009604049682617187	0.94981298828125	-0.004192230224609375	-0.010528300285339355	0.98677099609375	0.014338000297546387	0.03249689865112305	0.9594569702148438	0.00736899995803833	0.01851799964904785	0.94793701171875	-0.007567080020904541	-0.001900859951972961	0.9461859741210937	-0.02191830062866211	-0.000329939007759094	0.97875	-0.05690510177612305	-0.028867599487304687	0.935426025390625	-0.04899739837646484	-0.014554900169372558	0.94639501953125	-0.04172850036621094	-0.003073349952697754	0.9560659790039062	-0.030074499130249024	0.016261199951171874	0.9721079711914062	-0.023473499298095703	0.04456399917602539	1.03331005859375
23	0.7666666666666667	0.02326959991455078	0.031141199111938477	0.9479609985351563	0.03057419967651367	0.035668701171875	0.9703350219726562	0.027364999771118163	0.03755550003051758	0.9975130004882813	0.004405200004577637	0.048003101348876955	1.0115700073242186	0.036996299743652344	-0.07190789794921874	0.94452197265625	0.035530799865722655	-0.05363700103759766	0.9576069946289063	0.031882099151611325	-0.036906200408935545	0.9699990234375	0.02172999954223633	-0.007301809787750244	0.990051025390625	0.029743900299072267	0.02236400032043457	0.9685549926757813	0.027045799255371095	0.011533699989318847	0.9522260131835938	0.015571499824523926	-0.010577300071716308	0.949541015625	-0.004234660148620606	-0.011278599739074706	0.9866589965820313	0.014146400451660155	0.03159700012207031	0.9589299926757813	0.0071007399559021	0.017543399810791015	0.9475560302734375	-0.007725850105285644	-0.0029568901062011718	0.9458800048828125	-0.02199020004272461	-0.001144799947738647	0.9786840209960938	-0.05714360046386719	-0.03019300079345703	0.9356240234375	-0.04920199966430664	-0.01574590015411377	0.9463759765625	-0.0419197998046875	-0.004131269931793213	0.9559219970703124	-0.030235599517822266	0.015307200431823731	0.9718330078125	-0.023644100189208983	0.04393030166625977	1.0328800048828124
24	0.8	0.02293230056762695	0.03028350067138672	0.9475380249023437	0.030330400466918945	0.03491310119628906	0.969927001953125	0.027055299758911133	0.0368400993347168	0.9969749755859375	0.004087069988250733	0.04759579849243164	1.0111799926757812	0.03664070129394531	-0.0730176010131836	0.9445780029296875	0.035183399200439454	-0.054631698608398435	0.9575850219726563	0.0315541000366211	-0.03785430145263672	0.9698480224609375	0.021417999267578126	-0.008141949653625488	0.9896849975585937	0.029534299850463866	0.021585399627685548	0.9681500244140625	0.026884300231933594	0.010648599624633789	0.9519299926757813	0.015404299736022949	-0.011469300270080567	0.9491060180664063	-0.004421130180358886	-0.012001999855041504	0.9859520263671875	0.014029199600219727	0.030771799087524414	0.9581699829101562	0.007000579833984375	0.016590900421142578	0.9468939819335938	-0.007926809787750243	-0.003847539901733398	0.9456950073242187	-0.022151599884033202	-0.00197307002544403	0.9780900268554688	-0.057272499084472656	-0.031211399078369142	0.9352849731445313	-0.04938930130004883	-0.016725200653076172	0.945947998046875	-0.04214609909057617	-0.005074230194091797	0.9555430297851563	-0.030398300170898437	0.014454500198364258	0.9710889892578125	-0.023898500442504883	0.043297100067138675	1.032280029296875
25	0.8333333333333334	0.02260650062561035	0.029944099426269532	0.947051025390625	0.030035499572753907	0.03454439926147461	0.9691740112304688	0.026779199600219728	0.03642340087890625	0.9965670166015625	0.003940099954605102	0.04672809982299805	1.010469970703125	0.03676089859008789	-0.07336150360107421	0.9438889770507812	0.03524670028686523	-0.05498839950561524	0.9568880004882813	0.03155900001525879	-0.038230899810791016	0.969176025390625	0.02130120086669922	-0.008549579620361328	0.989031982421875	0.02926409912109375	0.021342300415039064	0.967427978515625	0.026612600326538085	0.010289299964904785	0.9512329711914063	0.01523639965057373	-0.011844900131225586	0.94847802734375	-0.00450324010848999	-0.012614800453186035	0.9854940185546875	0.013745800018310547	0.030362600326538085	0.957677001953125	0.00677538013458252	0.016196800231933595	0.9463619995117187	-0.008031359672546387	-0.004321949958801269	0.945135986328125	-0.022270099639892578	-0.002664239883422851	0.9772830200195313	-0.05744879913330078	-0.03209510040283203	0.9349359741210937	-0.04956840133666992	-0.017502899169921874	0.9454879760742188	-0.04231900024414063	-0.005808720111846924	0.955010009765625	-0.030646999359130858	0.013804699897766113	0.9705999755859375	-0.02416900062561035	0.04273270034790039	1.031739990234375
